<?xml version="1.0" standalone="no"?>
<!DOCTYPE svg PUBLIC "-//W3C//DTD SVG 20010904//EN"
 "http://www.w3.org/TR/2001/REC-SVG-20010904/DTD/svg10.dtd">
<svg version="1.0" xmlns="http://www.w3.org/2000/svg"
 width="512.000000pt" height="512.000000pt" viewBox="0 0 512.000000 512.000000"
 preserveAspectRatio="xMidYMid meet">
<metadata>
Created by potrace 1.11, written by Peter Selinger 2001-2013
</metadata>
<g transform="translate(0.000000,512.000000) scale(0.100000,-0.100000)"
fill="#000000" stroke="none">
<path d="M0 2560 l0 -2560 2560 0 2560 0 0 2560 0 2560 -2560 0 -2560 0 0
-2560z m2715 2299 c557 -71 1047 -450 1290 -997 85 -194 150 -442 175 -672 15
-134 15 -454 1 -590 -56 -528 -263 -955 -599 -1233 -230 -190 -434 -282 -792
-355 l-45 -10 44 -1 c34 -1 60 -11 105 -41 124 -80 307 -145 441 -157 124 -10
250 35 428 154 54 36 102 61 107 57 39 -44 320 -396 320 -402 0 -14 -244 -167
-356 -223 -149 -75 -247 -101 -402 -107 -205 -7 -292 13 -597 138 -104 43
-219 86 -255 96 -81 22 -299 25 -380 6 -106 -26 -243 -86 -413 -183 -127 -72
-175 -94 -183 -85 -14 14 -266 448 -262 451 2 1 43 25 91 55 110 65 209 144
311 248 l78 80 -108 56 c-327 167 -536 387 -714 751 -101 206 -157 389 -197
645 -22 145 -25 574 -5 720 82 590 353 1059 777 1342 333 223 721 311 1140
257z"/>
<path d="M2309 4305 c-258 -49 -503 -200 -658 -405 -170 -226 -260 -512 -277
-886 -32 -681 227 -1226 675 -1420 145 -62 234 -79 426 -78 156 1 180 3 286
31 193 51 342 132 467 253 264 257 384 637 369 1169 -9 316 -52 514 -162 736
-151 307 -394 505 -720 586 -107 27 -304 34 -406 14z"/>
</g>
</svg>
